# xmcd
#
# Track frame offsets:
#	150
#	26017
#	48972
#	65987
#	81255
#	97107
#	114970
#	134060
#	148657
#	177285
#	197090
#	213077
#	226590
#	252577
#	267360
#	290140
#
# Disc length: 3954 seconds
#
# Revision: 1
# Processed by: cddbd v1.5PL3 Copyright (c) Steve Scherf et al.
# Submitted via: CDex 1.50Beta5
#
DISCID=f80f7010
DTITLE=オフコース - バラード
DYEAR=1989
DGENRE=New Age
TTITLE0=NEXTのテーマ〜僕等がいた
TTITLE1=愛のゆくえ
TTITLE2=夏の終り
TTITLE3=別れの情景(1)
TTITLE4=別れの情景(2)〜もう歌は作れない
TTITLE5=秋の気配
TTITLE6=愛の唄
TTITLE7=歌を捧げて
TTITLE8=言葉にできない
TTITLE9=いくつもの星の下で
TTITLE10=心はなれて
TTITLE11=ロンド
TTITLE12=冬が来るまえに
TTITLE13=去っていった友へ-T氏に捧げる-
TTITLE14=I LOVE YOU
TTITLE15=いつもいつも
EXTD=
EXTT0=
EXTT1=
EXTT2=
EXTT3=
EXTT4=
EXTT5=
EXTT6=
EXTT7=
EXTT8=
EXTT9=
EXTT10=
EXTT11=
EXTT12=
EXTT13=
EXTT14=
EXTT15=
PLAYORDER=
